<?xml version="1.0" encoding="UTF-8" standalone="no"?>
<svg width="17px" height="14px" viewBox="0 0 17 14" version="1.1" xmlns="http://www.w3.org/2000/svg" xmlns:xlink="http://www.w3.org/1999/xlink">
    <!-- Generator: Sketch 3.8.3 (29802) - http://www.bohemiancoding.com/sketch -->
    <title>speech-bubble</title>
    <desc>Created with Sketch.</desc>
    <defs></defs>
    <g id="Page-1" stroke="none" stroke-width="1" fill="none" fill-rule="evenodd">
        <g id="Survey-List-Grouped" transform="translate(-53.000000, -259.000000)" fill="#A7C447">
            <path d="M53.5763052,270.501014 L55.4317269,270.501014 L55.4317269,272.41785 C55.4317269,272.64503 55.5582329,272.843813 55.7550201,272.943205 C55.8393574,272.985801 55.9236948,273 56.0080321,273 C56.1345382,273 56.2610442,272.957404 56.3594378,272.88641 L59.4518072,270.515213 L68.7570281,270.515213 C69.0803213,270.515213 69.3333333,270.259635 69.3333333,269.933063 L69.3333333,259.58215 C69.3333333,259.255578 69.0803213,259 68.7570281,259 L53.5763052,259 C53.253012,259 53,259.255578 53,259.58215 L53,269.918864 C53,270.245436 53.2670683,270.501014 53.5763052,270.501014 Z M57.0200803,263.926978 L65.313253,263.926978 C65.6365462,263.926978 65.8895582,263.6714 65.8895582,263.344828 C65.8895582,263.018256 65.6365462,262.762677 65.313253,262.762677 L57.0200803,262.762677 C56.6967871,262.762677 56.4437751,263.018256 56.4437751,263.344828 C56.4437751,263.6714 56.6967871,263.926978 57.0200803,263.926978 Z M57.0200803,266.738337 L65.313253,266.738337 C65.6365462,266.738337 65.8895582,266.482759 65.8895582,266.156187 C65.8895582,265.829615 65.6365462,265.574037 65.313253,265.574037 L57.0200803,265.574037 C56.6967871,265.574037 56.4437751,265.829615 56.4437751,266.156187 C56.4437751,266.482759 56.6967871,266.738337 57.0200803,266.738337 Z M54.1526104,260.1643 L68.1666667,260.1643 L68.1666667,269.336714 L59.2550201,269.336714 C59.1285141,269.336714 59.002008,269.37931 58.9036145,269.450304 L56.5843373,271.239351 L56.5843373,269.918864 C56.5843373,269.592292 56.3313253,269.336714 56.0080321,269.336714 L54.1526104,269.336714 L54.1526104,260.1643 L54.1526104,260.1643 Z" id="speech-bubble"></path>
        </g>
    </g>
</svg>