<?xml version="1.0" encoding="UTF-8" standalone="no"?>
<svg width="28px" height="18px" viewBox="0 0 28 18" version="1.1" xmlns="http://www.w3.org/2000/svg" xmlns:xlink="http://www.w3.org/1999/xlink">
    <!-- Generator: Sketch 3.8.3 (29802) - http://www.bohemiancoding.com/sketch -->
    <title>Group 2</title>
    <desc>Created with Sketch.</desc>
    <defs></defs>
    <g id="Page-1" stroke="none" stroke-width="1" fill="none" fill-rule="evenodd" opacity="0.532416045">
        <g id="Author-Coupland" transform="translate(-442.000000, -163.000000)" fill="#FEFFFF">
            <g id="Group" transform="translate(442.000000, 156.000000)">
                <g id="Group-3">
                    <g id="Group-2" transform="translate(0.000000, 7.000000)">
                        <path d="M12.5208768,0.117844227 L27.663774,0.117844227 L27.663774,4.29941108 L12.5208768,4.29941108 L12.5208768,0.117844227 Z M4.10477391,0.117844227 L8.89132185,0.117844227 L8.89132185,4.29941108 L4.10477391,4.29941108 L4.10477391,0.117844227 Z M12.5208768,13.7885728 L27.663774,13.7885728 L27.663774,17.9701396 L12.5208768,17.9701396 L12.5208768,13.7885728 Z M4.10477391,13.7885728 L8.89132185,13.7885728 L8.89132185,17.9701396 L4.10477391,17.9701396 L4.10477391,13.7885728 Z M0.104773912,6.9532085 L15.247671,6.9532085 L15.247671,11.1347754 L0.104773912,11.1347754 L0.104773912,6.9532085 Z M18.9684529,6.9532085 L23.7550008,6.9532085 L23.7550008,11.1347754 L18.9684529,11.1347754 L18.9684529,6.9532085 Z" id="Combined-Shape"></path>
                    </g>
                </g>
            </g>
        </g>
    </g>
</svg>