<?xml version="1.0" encoding="UTF-8" standalone="no"?>
<svg width="14px" height="14px" viewBox="0 0 14 14" version="1.1" xmlns="http://www.w3.org/2000/svg" xmlns:xlink="http://www.w3.org/1999/xlink">
    <!-- Generator: Sketch 3.8.3 (29802) - http://www.bohemiancoding.com/sketch -->
    <title>add</title>
    <desc>Created with Sketch.</desc>
    <defs></defs>
    <g id="Page-1" stroke="none" stroke-width="1" fill="none" fill-rule="evenodd">
        <g id="Fullscreen-Grid" transform="translate(-917.000000, -172.000000)" fill="#000000">
            <path d="M924.006029,172 C920.147287,172 917,175.137931 917,179 C917,182.862069 920.135228,186 924.006029,186 C927.864772,186 931,182.862069 931,179 C931,175.137931 927.864772,172 924.006029,172 L924.006029,172 Z M924.006029,185.022414 C920.689922,185.022414 917.988803,182.318966 917.988803,179 C917.988803,175.681034 920.689922,172.977586 924.006029,172.977586 C927.322136,172.977586 930.023256,175.681034 930.023256,179 C930.023256,182.318966 927.322136,185.022414 924.006029,185.022414 Z M927.225668,178.444828 L924.500431,178.444828 L924.500431,175.705172 C924.500431,175.427586 924.283376,175.210345 924.006029,175.210345 C923.728682,175.210345 923.511628,175.427586 923.511628,175.705172 L923.511628,178.432759 L920.786391,178.432759 C920.509044,178.432759 920.29199,178.65 920.29199,178.927586 C920.29199,179.205172 920.509044,179.422414 920.786391,179.422414 L923.511628,179.422414 L923.511628,182.15 C923.511628,182.427586 923.728682,182.644828 924.006029,182.644828 C924.283376,182.644828 924.500431,182.427586 924.500431,182.15 L924.500431,179.422414 L927.225668,179.422414 C927.503015,179.422414 927.720069,179.205172 927.720069,178.927586 C927.720069,178.65 927.503015,178.444828 927.225668,178.444828 Z" id="add" transform="translate(924.000000, 179.000000) rotate(-45.000000) translate(-924.000000, -179.000000) "></path>
        </g>
    </g>
</svg>