<?xml version="1.0" encoding="UTF-8" standalone="no"?>
<svg width="11px" height="11px" viewBox="0 0 11 11" version="1.1" xmlns="http://www.w3.org/2000/svg" xmlns:xlink="http://www.w3.org/1999/xlink">
  <!-- Generator: Sketch 3.8.3 (29802) - http://www.bohemiancoding.com/sketch -->
  <title>Page 1</title>
  <desc>Created with Sketch.</desc>
  <defs></defs>
  <g id="Page-1" stroke="none" stroke-width="1" fill="none" fill-rule="evenodd">
    <g id="Fullscreen-Grid" transform="translate(-918.000000, -189.000000)" fill="#000000">
      <path
        d="M928.982331,199.428198 L928.115248,197.027048 L928.115248,197.027048 C928.115248,197.00517 928.093371,197.00517 928.093371,196.982226 C928.093371,196.960349 928.071494,196.960349 928.071494,196.937405 L928.049617,196.915527 C928.049617,196.89365 928.02774,196.89365 928.02774,196.870706 L928.02774,196.870706 L920.267754,189.133664 C920.089535,188.955445 919.82274,188.955445 919.645589,189.133664 L918.133397,190.645856 C918.044821,190.734431 918,190.845951 918,190.957472 C918,191.068992 918.044821,191.179445 918.133397,191.269088 L925.870439,199.006129 L925.870439,199.006129 C925.892316,199.028007 925.892316,199.028007 925.915261,199.028007 L925.937138,199.049884 C925.959015,199.049884 925.959015,199.071761 925.981959,199.071761 C926.003836,199.071761 926.003836,199.093638 926.026781,199.093638 L926.026781,199.093638 L928.406054,199.982597 C928.450876,200.004475 928.517575,200.004475 928.561329,200.004475 C928.672849,200.004475 928.783302,199.959653 928.872945,199.871077 C928.982331,199.783569 929.027152,199.60535 928.982331,199.428198 L928.982331,199.428198 Z M919.067178,190.957472 L919.956138,190.068512 L920.623124,190.735499 L919.734165,191.624458 L919.067178,190.957472 Z M921.245289,191.379541 L927.04807,197.182322 L926.159111,198.071281 L920.356329,192.246623 L921.245289,191.379541 Z M926.981372,198.516295 L927.514961,197.982706 L927.826577,198.827911 L926.981372,198.516295 Z"
        id="Page-1"
        transform="translate(923.499776, 194.502237) scale(-1, 1) translate(-923.499776, -194.502237) "></path>
    </g>
  </g>
</svg>