<?xml version="1.0" encoding="UTF-8" standalone="no"?>
<svg width="14px" height="14px" viewBox="0 0 14 14" version="1.1" xmlns="http://www.w3.org/2000/svg" xmlns:xlink="http://www.w3.org/1999/xlink">
    <!-- Generator: Sketch 3.8.3 (29802) - http://www.bohemiancoding.com/sketch -->
    <title>settings-1</title>
    <desc>Created with Sketch.</desc>
    <defs></defs>
    <g id="Page-1" stroke="none" stroke-width="1" fill="none" fill-rule="evenodd">
        <g id="Fullscreen-Grid" transform="translate(-917.000000, -86.000000)" fill="#000000">
            <path d="M917.493976,91.5517241 C917.216867,91.5517241 917,91.7689655 917,92.0465517 L917,93.9775862 C917,94.2551724 917.216867,94.4724138 917.493976,94.4724138 L918.39759,94.4724138 C918.53012,94.9913793 918.73494,95.4862069 919.012048,95.9448276 L918.385542,96.5724138 C918.192771,96.7655172 918.192771,97.0793103 918.385542,97.2724138 L919.746988,98.6362069 C919.939759,98.8293103 920.253012,98.8293103 920.445783,98.6362069 L921.084337,97.9965517 C921.542169,98.262069 922.036145,98.4672414 922.554217,98.6 L922.554217,99.5051724 C922.554217,99.7827586 922.771084,100 923.048193,100 L924.975904,100 C925.253012,100 925.46988,99.7827586 925.46988,99.5051724 L925.46988,98.587931 C925.987952,98.4551724 926.46988,98.25 926.927711,97.9844828 L927.578313,98.6362069 C927.771084,98.8293103 928.084337,98.8293103 928.277108,98.6362069 L929.638554,97.2724138 C929.831325,97.0793103 929.831325,96.7655172 929.638554,96.5724138 L928.987952,95.9206897 C929.253012,95.462069 929.457831,94.9793103 929.590361,94.4603448 L930.506024,94.4603448 C930.783133,94.4603448 931,94.2431034 931,93.9655172 L931,92.0344828 C931,91.7568966 930.783133,91.5396552 930.506024,91.5396552 L929.590361,91.5396552 C929.457831,91.0206897 929.253012,90.537931 928.987952,90.0793103 L929.638554,89.4275862 C929.831325,89.2344828 929.831325,88.9206897 929.638554,88.7275862 L928.26506,87.3758621 C928.072289,87.1827586 927.759036,87.1827586 927.566265,87.3758621 L926.927711,88.0155172 C926.46988,87.75 925.975904,87.5448276 925.457831,87.4 L925.457831,86.4948276 C925.457831,86.2172414 925.240964,86 924.963855,86 L923.036145,86 C922.759036,86 922.542169,86.2172414 922.542169,86.4948276 L922.542169,87.4 C922.024096,87.5327586 921.53012,87.737931 921.072289,88.0034483 L920.433735,87.3637931 C920.240964,87.1706897 919.927711,87.1706897 919.73494,87.3637931 L918.373494,88.7396552 C918.180723,88.9327586 918.180723,89.2465517 918.373494,89.4396552 L919,90.0672414 C918.722892,90.5258621 918.518072,91.0206897 918.385542,91.5517241 L917.493976,91.5517241 L917.493976,91.5517241 Z M919.277108,92.1310345 C919.39759,91.4551724 919.662651,90.8396552 920.036145,90.2844828 C920.168675,90.0913793 920.144578,89.8258621 919.975904,89.6568966 L919.421687,89.0896552 L920.084337,88.4258621 L920.650602,88.9931034 C920.819277,89.162069 921.084337,89.1862069 921.277108,89.0534483 C921.831325,88.6672414 922.457831,88.4137931 923.120482,88.2931034 C923.349398,88.2448276 923.53012,88.0517241 923.53012,87.8103448 L923.53012,87.0017241 L924.46988,87.0017241 L924.46988,87.8103448 C924.46988,88.0517241 924.638554,88.2568966 924.86747,88.2931034 C925.53012,88.4137931 926.144578,88.6793103 926.698795,89.0534483 C926.891566,89.1862069 927.156627,89.162069 927.325301,88.9931034 L927.903614,88.4137931 L928.566265,89.0775862 L927.987952,89.6568966 C927.819277,89.8258621 927.795181,90.0913793 927.927711,90.2844828 C928.301205,90.8396552 928.554217,91.4551724 928.686747,92.1189655 C928.73494,92.3482759 928.939759,92.5293103 929.168675,92.5293103 L929.987952,92.5293103 L929.987952,93.4706897 L929.168675,93.4706897 C928.927711,93.4706897 928.722892,93.6396552 928.686747,93.8689655 C928.566265,94.5327586 928.313253,95.1482759 927.927711,95.7034483 C927.795181,95.8965517 927.819277,96.162069 927.987952,96.3310345 L928.566265,96.9103448 L927.903614,97.5741379 L927.325301,96.9948276 C927.156627,96.8258621 926.891566,96.8017241 926.698795,96.9344828 C926.144578,97.3206897 925.53012,97.5741379 924.86747,97.6948276 C924.638554,97.7431034 924.46988,97.9482759 924.46988,98.1775862 L924.46988,98.9862069 L923.53012,98.9862069 L923.53012,98.1775862 C923.53012,97.9362069 923.361446,97.7310345 923.120482,97.6948276 C922.445783,97.5741379 921.831325,97.3206897 921.277108,96.9344828 C921.084337,96.8017241 920.819277,96.8258621 920.650602,96.9948276 L920.084337,97.562069 L919.421687,96.9344828 L919.987952,96.3672414 C920.156627,96.1982759 920.180723,95.9327586 920.048193,95.7396552 C919.662651,95.1844828 919.409639,94.5568966 919.277108,93.8931034 C919.228916,93.6637931 919.036145,93.4948276 918.795181,93.4948276 L918,93.4948276 L918,92.5534483 L918.795181,92.5534483 C919.024096,92.5413793 919.228916,92.3724138 919.277108,92.1310345 L919.277108,92.1310345 Z M923.987952,96.4758621 C925.855422,96.4758621 927.373494,94.9551724 927.373494,93.0844828 C927.373494,91.2137931 925.855422,89.6931034 923.987952,89.6931034 C922.120482,89.6931034 920.60241,91.2137931 920.60241,93.0844828 C920.60241,94.9551724 922.120482,96.4758621 923.987952,96.4758621 L923.987952,96.4758621 Z M923.987952,90.6827586 C925.313253,90.6827586 926.385542,91.7568966 926.385542,93.0844828 C926.385542,94.412069 925.313253,95.4862069 923.987952,95.4862069 C922.662651,95.4862069 921.590361,94.412069 921.590361,93.0844828 C921.590361,91.7568966 922.662651,90.6827586 923.987952,90.6827586 L923.987952,90.6827586 Z" id="settings-1"></path>
        </g>
    </g>
</svg>