<?xml version="1.0" encoding="UTF-8" standalone="no"?>
<svg width="12px" height="13px" viewBox="0 0 12 13" version="1.1" xmlns="http://www.w3.org/2000/svg" xmlns:xlink="http://www.w3.org/1999/xlink">
    <!-- Generator: Sketch 3.8.3 (29802) - http://www.bohemiancoding.com/sketch -->
    <title>Group 5</title>
    <desc>Created with Sketch.</desc>
    <defs></defs>
    <g id="Page-1" stroke="none" stroke-width="1" fill="none" fill-rule="evenodd">
        <g id="Fullscreen-Grid" transform="translate(-918.000000, -143.000000)" fill="#000000">
            <g id="Group-5" transform="translate(918.000000, 142.000000)">
                <path d="M8.41053769,0.880409068 C8.3655871,0.863520792 8.31690739,0.854311762 8.26607647,0.854311762 C8.21613859,0.854311762 8.16772336,0.863927215 8.12269723,0.881491047 L8.09551794,0.854311762 L5.47372335,3.47610636 C5.30901029,3.64081941 5.31425928,3.89628542 5.4750634,4.05708954 C5.6311647,4.21319083 5.89598255,4.21849362 6.05604658,4.05842959 L7.85431176,2.26016441 L7.85431176,8.66989451 C7.85431176,8.90212711 8.0386651,9.08960588 8.26607647,9.08960588 C8.48683704,9.08960588 8.67784117,8.90095845 8.67784117,8.66825005 L8.67784117,2.26016441 L10.4761064,4.05842959 C10.6361704,4.21849362 10.9009882,4.21319083 11.0570895,4.05708954 C11.2178937,3.89628542 11.2231426,3.64081941 11.0584296,3.47610636 L8.43663499,0.854311762 L8.41053769,0.880409068 Z" id="Combined-Shape" transform="translate(8.266076, 4.971959) rotate(-315.000000) translate(-8.266076, -4.971959) "></path>
                <path d="M11.1295756,8.6761636 C10.9012257,8.6761636 10.7225171,8.85491417 10.7225171,9.08331768 L10.7225171,12.4100644 L0.81411704,12.4100644 L0.81411704,2.50926894 L4.140083,2.50926894 C4.3684329,2.50926894 4.54714152,2.33051837 4.54714152,2.10211486 C4.54714152,1.87371135 4.3684329,1.69496078 4.140083,1.69496078 L0.40705852,1.69496078 C0.178708618,1.69496078 0,1.87371135 0,2.10211486 L0,12.8172185 C0,13.045622 0.178708618,13.2243725 0.40705852,13.2243725 L11.1196474,13.2243725 C11.3479973,13.2243725 11.5267059,13.045622 11.5267059,12.8172185 L11.5267059,9.08331768 C11.5366341,8.86484476 11.3479973,8.6761636 11.1295756,8.6761636 L11.1295756,8.6761636 Z" id="export"></path>
            </g>
        </g>
    </g>
</svg>