<?xml version="1.0" encoding="UTF-8" standalone="no"?>
<svg width="18px" height="18px" viewBox="0 0 18 18" version="1.1" xmlns="http://www.w3.org/2000/svg" xmlns:xlink="http://www.w3.org/1999/xlink">
    <!-- Generator: Sketch 3.8.3 (29802) - http://www.bohemiancoding.com/sketch -->
    <title>settings-1</title>
    <desc>Created with Sketch.</desc>
    <defs></defs>
    <g id="Page-1" stroke="none" stroke-width="1" fill="none" fill-rule="evenodd" opacity="0.568097015">
        <g id="Survey-List-Grouped" transform="translate(-973.000000, -23.000000)" fill="#FFFFFF">
            <path d="M973.635112,30.137931 C973.27883,30.137931 973,30.4172414 973,30.7741379 L973,33.2568966 C973,33.6137931 973.27883,33.8931034 973.635112,33.8931034 L974.796902,33.8931034 C974.967298,34.5603448 975.230637,35.1965517 975.586919,35.7862069 L974.781411,36.5931034 C974.533563,36.8413793 974.533563,37.2448276 974.781411,37.4931034 L976.531842,39.2465517 C976.77969,39.4948276 977.182444,39.4948276 977.430293,39.2465517 L978.251291,38.4241379 C978.839931,38.7655172 979.475043,39.0293103 980.141136,39.2 L980.141136,40.3637931 C980.141136,40.7206897 980.419966,41 980.776248,41 L983.254733,41 C983.611015,41 983.889845,40.7206897 983.889845,40.3637931 L983.889845,39.1844828 C984.555938,39.0137931 985.175559,38.75 985.7642,38.4086207 L986.600688,39.2465517 C986.848537,39.4948276 987.251291,39.4948276 987.499139,39.2465517 L989.24957,37.4931034 C989.497418,37.2448276 989.497418,36.8413793 989.24957,36.5931034 L988.413081,35.7551724 C988.753873,35.1655172 989.017212,34.5448276 989.187608,33.8775862 L990.364888,33.8775862 C990.72117,33.8775862 991,33.5982759 991,33.2413793 L991,30.7586207 C991,30.4017241 990.72117,30.1224138 990.364888,30.1224138 L989.187608,30.1224138 C989.017212,29.4551724 988.753873,28.8344828 988.413081,28.2448276 L989.24957,27.4068966 C989.497418,27.1586207 989.497418,26.7551724 989.24957,26.5068966 L987.483649,24.7689655 C987.2358,24.5206897 986.833046,24.5206897 986.585198,24.7689655 L985.7642,25.5913793 C985.175559,25.25 984.540448,24.9862069 983.874355,24.8 L983.874355,23.6362069 C983.874355,23.2793103 983.595525,23 983.239243,23 L980.760757,23 C980.404475,23 980.125645,23.2793103 980.125645,23.6362069 L980.125645,24.8 C979.459552,24.9706897 978.824441,25.2344828 978.2358,25.5758621 L977.414802,24.7534483 C977.166954,24.5051724 976.7642,24.5051724 976.516351,24.7534483 L974.765921,26.5224138 C974.518072,26.7706897 974.518072,27.1741379 974.765921,27.4224138 L975.571429,28.2293103 C975.215146,28.8189655 974.951807,29.4551724 974.781411,30.137931 L973.635112,30.137931 L973.635112,30.137931 Z M975.927711,30.8827586 C976.082616,30.0137931 976.423408,29.2224138 976.903614,28.5086207 C977.07401,28.2603448 977.043029,27.9189655 976.826162,27.7017241 L976.113597,26.9724138 L976.965577,26.1189655 L977.693632,26.8482759 C977.910499,27.0655172 978.251291,27.0965517 978.499139,26.9258621 C979.211704,26.4293103 980.017212,26.1034483 980.869191,25.9482759 C981.163511,25.8862069 981.395869,25.637931 981.395869,25.3275862 L981.395869,24.287931 L982.604131,24.287931 L982.604131,25.3275862 C982.604131,25.637931 982.820998,25.9017241 983.115318,25.9482759 C983.967298,26.1034483 984.757315,26.4448276 985.46988,26.9258621 C985.717728,27.0965517 986.05852,27.0655172 986.275387,26.8482759 L987.018933,26.1034483 L987.870912,26.9568966 L987.127367,27.7017241 C986.910499,27.9189655 986.879518,28.2603448 987.049914,28.5086207 C987.53012,29.2224138 987.855422,30.0137931 988.025818,30.8672414 C988.08778,31.162069 988.351119,31.3948276 988.645439,31.3948276 L989.698795,31.3948276 L989.698795,32.6051724 L988.645439,32.6051724 C988.335628,32.6051724 988.072289,32.8224138 988.025818,33.1172414 C987.870912,33.9706897 987.545611,34.762069 987.049914,35.4758621 C986.879518,35.7241379 986.910499,36.0655172 987.127367,36.2827586 L987.870912,37.0275862 L987.018933,37.8810345 L986.275387,37.1362069 C986.05852,36.9189655 985.717728,36.887931 985.46988,37.0586207 C984.757315,37.5551724 983.967298,37.8810345 983.115318,38.0362069 C982.820998,38.0982759 982.604131,38.362069 982.604131,38.6568966 L982.604131,39.6965517 L981.395869,39.6965517 L981.395869,38.6568966 C981.395869,38.3465517 981.179002,38.0827586 980.869191,38.0362069 C980.001721,37.8810345 979.211704,37.5551724 978.499139,37.0586207 C978.251291,36.887931 977.910499,36.9189655 977.693632,37.1362069 L976.965577,37.8655172 L976.113597,37.0586207 L976.841652,36.3293103 C977.05852,36.112069 977.089501,35.7706897 976.919105,35.5224138 C976.423408,34.8086207 976.098107,34.0017241 975.927711,33.1482759 C975.865749,32.8534483 975.6179,32.6362069 975.30809,32.6362069 L974.285714,32.6362069 L974.285714,31.4258621 L975.30809,31.4258621 C975.60241,31.4103448 975.865749,31.1931034 975.927711,30.8827586 L975.927711,30.8827586 Z M981.984509,36.4689655 C984.385542,36.4689655 986.337349,34.5137931 986.337349,32.1086207 C986.337349,29.7034483 984.385542,27.7482759 981.984509,27.7482759 C979.583477,27.7482759 977.63167,29.7034483 977.63167,32.1086207 C977.63167,34.5137931 979.583477,36.4689655 981.984509,36.4689655 L981.984509,36.4689655 Z M981.984509,29.0206897 C983.688468,29.0206897 985.067126,30.4017241 985.067126,32.1086207 C985.067126,33.8155172 983.688468,35.1965517 981.984509,35.1965517 C980.280551,35.1965517 978.901893,33.8155172 978.901893,32.1086207 C978.901893,30.4017241 980.280551,29.0206897 981.984509,29.0206897 L981.984509,29.0206897 Z" id="settings-1"></path>
        </g>
    </g>
</svg>