<?xml version="1.0" encoding="UTF-8" standalone="no"?>
<svg width="19px" height="5px" viewBox="0 0 19 5" version="1.1" xmlns="http://www.w3.org/2000/svg" xmlns:xlink="http://www.w3.org/1999/xlink">
    <!-- Generator: Sketch 3.8.3 (29802) - http://www.bohemiancoding.com/sketch -->
    <title>Page 1</title>
    <desc>Created with Sketch.</desc>
    <defs></defs>
    <g id="Page-1" stroke="none" stroke-width="1" fill="none" fill-rule="evenodd" opacity="0.390625">
        <g id="Survey-List-Grouped" transform="translate(-951.000000, -261.000000)" fill="#000000">
            <g id="Page-1" transform="translate(951.000000, 261.000000)">
                <path d="M4.45318182,2.5 C4.45318182,3.63636364 3.53,4.55954545 2.39363636,4.55954545 C1.25727273,4.55954545 0.333636364,3.63636364 0.333636364,2.5 C0.333636364,1.36363636 1.25727273,0.440454545 2.39363636,0.440454545 C3.53,0.440454545 4.45318182,1.36363636 4.45318182,2.5 L4.45318182,2.5 Z" id="Fill-1"></path>
                <path d="M11.3777273,2.5 C11.3777273,3.63636364 10.4545455,4.55954545 9.31818182,4.55954545 C8.18181818,4.55954545 7.25863636,3.63636364 7.25863636,2.5 C7.25863636,1.36363636 8.18181818,0.440454545 9.31818182,0.440454545 C10.4545455,0.440454545 11.3777273,1.36363636 11.3777273,2.5 L11.3777273,2.5 Z" id="Fill-2"></path>
                <path d="M18.3027273,2.5 C18.3027273,5.24681818 14.1831818,5.24681818 14.1831818,2.5 C14.1831818,-0.246818182 18.3027273,-0.246818182 18.3027273,2.5" id="Fill-3"></path>
            </g>
        </g>
    </g>
</svg>