<?xml version="1.0" encoding="UTF-8" standalone="no"?>
<svg width="17px" height="14px" viewBox="0 0 17 14" version="1.1" xmlns="http://www.w3.org/2000/svg" xmlns:xlink="http://www.w3.org/1999/xlink">
    <!-- Generator: Sketch 3.8.3 (29802) - http://www.bohemiancoding.com/sketch -->
    <title>speech-bubble copy</title>
    <desc>Created with Sketch.</desc>
    <defs></defs>
    <g id="Page-1" stroke="none" stroke-width="1" fill="none" fill-rule="evenodd">
        <g id="Survey-List-Grouped" transform="translate(-53.000000, -313.000000)" fill="#9B9B9B">
            <path d="M53.5763052,324.501014 L55.4317269,324.501014 L55.4317269,326.41785 C55.4317269,326.64503 55.5582329,326.843813 55.7550201,326.943205 C55.8393574,326.985801 55.9236948,327 56.0080321,327 C56.1345382,327 56.2610442,326.957404 56.3594378,326.88641 L59.4518072,324.515213 L68.7570281,324.515213 C69.0803213,324.515213 69.3333333,324.259635 69.3333333,323.933063 L69.3333333,313.58215 C69.3333333,313.255578 69.0803213,313 68.7570281,313 L53.5763052,313 C53.253012,313 53,313.255578 53,313.58215 L53,323.918864 C53,324.245436 53.2670683,324.501014 53.5763052,324.501014 Z M57.0200803,317.926978 L65.313253,317.926978 C65.6365462,317.926978 65.8895582,317.6714 65.8895582,317.344828 C65.8895582,317.018256 65.6365462,316.762677 65.313253,316.762677 L57.0200803,316.762677 C56.6967871,316.762677 56.4437751,317.018256 56.4437751,317.344828 C56.4437751,317.6714 56.6967871,317.926978 57.0200803,317.926978 Z M57.0200803,320.738337 L65.313253,320.738337 C65.6365462,320.738337 65.8895582,320.482759 65.8895582,320.156187 C65.8895582,319.829615 65.6365462,319.574037 65.313253,319.574037 L57.0200803,319.574037 C56.6967871,319.574037 56.4437751,319.829615 56.4437751,320.156187 C56.4437751,320.482759 56.6967871,320.738337 57.0200803,320.738337 Z M54.1526104,314.1643 L68.1666667,314.1643 L68.1666667,323.336714 L59.2550201,323.336714 C59.1285141,323.336714 59.002008,323.37931 58.9036145,323.450304 L56.5843373,325.239351 L56.5843373,323.918864 C56.5843373,323.592292 56.3313253,323.336714 56.0080321,323.336714 L54.1526104,323.336714 L54.1526104,314.1643 L54.1526104,314.1643 Z" id="speech-bubble-copy"></path>
        </g>
    </g>
</svg>