<?xml version="1.0" encoding="UTF-8" standalone="no"?>
<svg width="11px" height="11px" viewBox="0 0 11 11" version="1.1" xmlns="http://www.w3.org/2000/svg" xmlns:xlink="http://www.w3.org/1999/xlink">
    <!-- Generator: Sketch 3.8.3 (29802) - http://www.bohemiancoding.com/sketch -->
    <title>Combined Shape</title>
    <desc>Created with Sketch.</desc>
    <defs></defs>
    <g id="Page-1" stroke="none" stroke-width="1" fill="none" fill-rule="evenodd">
        <g id="Fullscreen-Grid" transform="translate(-918.000000, -159.000000)" fill="#000000">
            <path d="M924,164 L924,159.501231 C924,159.229751 923.776142,159 923.5,159 C923.231934,159 923,159.224409 923,159.501231 L923,164 L918.501231,164 C918.229751,164 918,164.223858 918,164.5 C918,164.768066 918.224409,165 918.501231,165 L923,165 L923,169.498769 C923,169.770249 923.223858,170 923.5,170 C923.768066,170 924,169.775591 924,169.498769 L924,165 L928.498769,165 C928.770249,165 929,164.776142 929,164.5 C929,164.231934 928.775591,164 928.498769,164 L924,164 Z" id="Combined-Shape"></path>
        </g>
    </g>
</svg>