<?xml version="1.0" encoding="UTF-8" standalone="no"?>
<svg width="14px" height="14px" viewBox="0 0 14 14" version="1.1" xmlns="http://www.w3.org/2000/svg" xmlns:xlink="http://www.w3.org/1999/xlink">
    <!-- Generator: Sketch 3.8.3 (29802) - http://www.bohemiancoding.com/sketch -->
    <title>profile</title>
    <desc>Created with Sketch.</desc>
    <defs></defs>
    <g id="Page-1" stroke="none" stroke-width="1" fill="none" fill-rule="evenodd">
        <g id="Fullscreen-Grid" transform="translate(-917.000000, -114.000000)" fill="#000000">
            <path d="M923.977011,121.470492 C926.045977,121.470492 927.724138,119.795082 927.724138,117.729508 C927.724138,115.663934 926.045977,114 923.977011,114 C921.908046,114 920.229885,115.67541 920.229885,117.729508 C920.229885,119.783607 921.908046,121.470492 923.977011,121.470492 L923.977011,121.470492 Z M923.977011,114.97541 C925.494253,114.97541 926.735632,116.214754 926.735632,117.729508 C926.735632,119.244262 925.494253,120.483607 923.977011,120.483607 C922.45977,120.483607 921.218391,119.244262 921.218391,117.729508 C921.218391,116.214754 922.45977,114.97541 923.977011,114.97541 Z M917.494253,127.311475 L930.505747,127.311475 C930.781609,127.311475 931,127.093443 931,126.818033 C931,124.236066 928.896552,122.12459 926.298851,122.12459 L921.701149,122.12459 C919.114943,122.12459 917,124.22459 917,126.818033 C917,127.093443 917.218391,127.311475 917.494253,127.311475 L917.494253,127.311475 Z M921.701149,123.111475 L926.298851,123.111475 C928.183908,123.111475 929.735632,124.511475 929.977011,126.32459 L918.022989,126.32459 C918.264368,124.522951 919.816092,123.111475 921.701149,123.111475 Z" id="profile"></path>
        </g>
    </g>
</svg>