<?xml version="1.0" encoding="UTF-8" standalone="no"?>
<svg width="18px" height="12px" viewBox="0 0 18 12" version="1.1" xmlns="http://www.w3.org/2000/svg" xmlns:xlink="http://www.w3.org/1999/xlink">
    <!-- Generator: Sketch 3.8.3 (29802) - http://www.bohemiancoding.com/sketch -->
    <title>Page 1</title>
    <desc>Created with Sketch.</desc>
    <defs></defs>
    <g id="Page-1" stroke="none" stroke-width="1" fill="none" fill-rule="evenodd" opacity="0.268248601">
        <g id="Survey-List-Grouped" transform="translate(-519.000000, -260.000000)" fill="#000000">
            <g id="Page-1" transform="translate(519.000000, 260.000000)">
                <path d="M12.4873714,7.1875 C11.2821429,7.1875 10.3178571,7.5 9.59451429,7.8905 C10.7197714,8.828 11.2016571,9.922 11.2821429,10 L11.3626286,10.15625 L11.3626286,11.875 L17.7912,11.875 L17.7912,10.3125 C17.7107143,10.3125 16.425,7.1875 12.4873714,7.1875 L12.4873714,7.1875 Z" id="Fill-1"></path>
                <path d="M15.3,2.8905 C15.3,4.4005 14.0405143,5.625 12.4873714,5.625 C10.9344857,5.625 9.675,4.4005 9.675,2.8905 C9.675,1.38075 10.9344857,0.15625 12.4873714,0.15625 C14.0405143,0.15625 15.3,1.38075 15.3,2.8905" id="Fill-2"></path>
                <path d="M2.44285714,2.8905 C2.44285714,1.40625 3.72857143,0.15625 5.25548571,0.15625 C6.78214286,0.15625 8.06785714,1.40625 8.06785714,2.8905 C8.06785714,4.375 6.78214286,5.625 5.25548571,5.625 C3.72857143,5.625 2.44285714,4.375 2.44285714,2.8905 L2.44285714,2.8905 Z M5.25548571,7.1875 C1.31785714,7.1875 0.0321428571,10.3125 0.0321428571,10.3125 L0.0321428571,11.875 L10.4785714,11.875 L10.4785714,10.3125 C10.4785714,10.3125 9.19285714,7.1875 5.25548571,7.1875 L5.25548571,7.1875 Z" id="Fill-3"></path>
            </g>
        </g>
    </g>
</svg>