<?xml version="1.0" encoding="utf-8"?>
<!-- Generator: Adobe Illustrator 19.2.1, SVG Export Plug-In . SVG Version: 6.00 Build 0)  -->
<svg version="1.1" id="Layer_1" xmlns="http://www.w3.org/2000/svg" xmlns:xlink="http://www.w3.org/1999/xlink" x="0px" y="0px"
	 viewBox="0 0 300 300" style="enable-background:new 0 0 300 300;" xml:space="preserve">
<style type="text/css">
	.st0{fill:#FFFFFF;}
</style>
<title>Artboard 1</title>
<desc>Created with Sketch.</desc>
<g id="Page-1">
	<g id="Artboard-1">
		<path id="Combined-Shape" class="st0" d="M123.7,211.9H53.1c-0.7,0-1.4,0.1-2.2,0.1C28.3,212,10,193.7,10,171.1
			c0-21.4,16.5-39,37.4-40.8c-0.5-2.2-0.7-4.5-0.7-6.8c0-17.9,14.5-32.5,32.5-32.5c5.6,0,10.8,1.4,15.4,3.9
			c13.5-22.2,38-37.1,65.9-37.1c37.1,0,68,26.2,75.4,61.1c2.5-0.4,5.1-0.6,7.7-0.6c25.6,0,46.4,21,46.4,46.8s-20.8,46.8-46.4,46.8
			c-0.1,0-0.1,0-0.2,0l-67.2,0v-46.5l27.1-0.7l-52.8-52.3l-52.8,52.3h26V211.9z"/>
	</g>
</g>
</svg>
