<?xml version="1.0" encoding="UTF-8" standalone="no"?>
<svg width="30px" height="21px" viewBox="0 0 30 21" version="1.1" xmlns="http://www.w3.org/2000/svg" xmlns:xlink="http://www.w3.org/1999/xlink">
    <!-- Generator: Sketch 3.8.3 (29802) - http://www.bohemiancoding.com/sketch -->
    <title>Combined Shape</title>
    <desc>Created with Sketch.</desc>
    <defs></defs>
    <g id="Page-1" stroke="none" stroke-width="1" fill="none" fill-rule="evenodd">
        <g id="32" transform="translate(-1.000000, -6.000000)" fill="#FFFFFF">
            <path d="M20.0932346,26.3596191 L24.4282225,26.3596191 C24.4282225,26.3596191 24.4285211,26.3586346 24.4291113,26.3566816 C28.0763492,26.2511497 31,23.3155525 31,19.7096191 C31,16.7059439 28.9714018,14.1673868 26.1857777,13.3422079 C25.2769297,9.38824228 22.1312604,6 16.6108044,6 C12.084771,6 9.45454182,8.26619157 8.13825843,11.2646649 C7.86726281,11.196093 7.5831317,11.1596191 7.29032258,11.1596191 C5.41968069,11.1596191 3.90322581,12.6482723 3.90322581,14.4846191 C3.90322581,14.8809626 3.97386789,15.2611092 4.10346629,15.6135874 C2.25808473,16.5681502 1,18.4696575 1,20.6596191 C1,23.8076422 3.59963694,26.3596191 6.80645161,26.3596191 L13,26.3596191 L13,22.8294839 L10,22.8294839 L16.3839111,14 L22.7678223,22.8294839 L20.0932346,22.8294839 L20.0932346,26.3596191 Z" id="Combined-Shape"></path>
        </g>
    </g>
</svg>